<?xml version="1.0" encoding="UTF-8"?><svg id="Layer_1" xmlns="http://www.w3.org/2000/svg" viewBox="0 0 357.43 381.2"><defs><style>.cls-1{fill:#0b0b0b;}</style></defs><path class="cls-1" d="m152.97,294.29c1.43-.52,20.36-7.42,36.38-13.05,0,0,6.27-2.32,15.98-5.16,4.29-1.26,5.73-1.59,6.69-1.83,2.29-.56,4.6-1.01,6.9-1.51.84-.18,1.7-.32,2.52-.57,1.97-.59,3.96-.92,6.01-1.07,1.17-.08,2.33-.35,3.49-.49,1.62-.19,3.24-.4,4.86-.5,2.71-.17,5.43-.36,8.15-.36,7.05.02,13.91,1.1,20.39,4.07,2.07.95,4.01,2.11,5.7,3.66.5.46,1.03.92,1.41,1.47,2.69,3.88,5.27,7.82,6.51,12.47.2.74.52,1.45.7,2.2,1.03,4.3.74,8.64.18,12.96-.36,2.76-1.21,5.38-2.5,7.86-1.17,2.25-2.28,4.53-3.43,6.79-.2.4-.44.8-.73,1.15-2.87,3.39-5.66,6.88-9.1,9.7-5.42,4.43-11.26,8.24-17.56,11.35-2.03,1-3.92,2.28-5.96,3.26-3.26,1.57-6.41,3.39-9.9,4.48-.95.3-1.83.8-2.77,1.13-.64.22-1.28.44-1.92.65-1.64.55-3.27,1.09-4.92,1.62-2.73.88-11.33,3.88-22.6,8.04-3.26,1.2-4.72,1.65-7.05,2.17-4.23.94-10.43.9-10.91-.69-.59-1.96,7.51-6.1,13.19-8.84,14.98-7.23,21.22-8,34.46-14.83,4.94-2.55,8.37-4.73,10.87-6.2,6.35-3.74,12.27-8.08,17.6-13.18,2.64-2.52,4.93-5.32,6.81-8.45,1.31-2.18,2.06-4.53,2.07-7.09,0-3.34-1.16-6.21-3.53-8.56-1.98-1.96-4.35-3.27-7.03-3.98-2.36-.63-4.77-1.11-7.16-1.62-2.82-.6-5.68-.51-8.54-.55-3.42-.05-6.8.34-10.16.8-2.82.39-5.63,1.01-8.4,1.7-3.69.91-7.35,1.99-11.02,2.99-1.22.33-2.45.66-3.68.99-3.15.84-6.26,1.77-9.23,3.16-1.46.68-3.09,1.02-4.66,1.47-1.83.52-3.63,1.07-5.37,1.88-1.35.63-2.8,1.05-4.23,1.47-4.24,1.21-8.22,3.07-12.25,4.81-1.19.51-2.47.81-3.66,1.31-3.3,1.39-6.58,2.82-9.6,4.78-.98.63-2.07,1.14-3.18,1.49-2.98.96-5.54,2.66-8.09,4.4-.9.61-1.84,1.15-2.75,1.74-1.94,1.25-3.9,2.49-5.82,3.77-2.98,1.99-5.94,3.99-8.89,6.02-4.81,3.32-9.72,6.52-13.77,10.82-.37.39-.84.69-1.24,1.06-.98.93-1.95,1.88-2.92,2.82-1.4,1.35-2.81,2.7-4.21,4.05-3.54,3.43-3.51,3.11-4.97,4.58-4.68,4.72-6.27,8.55-10.81,11.29-.45.27-.82.48-1.26.64-2.91,1.07-5.71.11-8.43-.87-.81-.29-4.53-1.69-8.11-5.09-1.03-.98-1.52-1.49-1.68-1.97-.92-2.77,2.76-5.95,9.96-13.19,2.01-2.03,4.55-4.62,7.46-7.7,2.67-3.4,3.51-5.01,6.08-7.78.52-.56.97-1.19,1.48-1.77,1.33-1.52,2.66-3.05,4.01-4.55,1.36-1.51,2.78-2.97,4.12-4.5,1.78-2.05,3.47-4.17,5.24-6.22,1.81-2.09,3.68-4.12,5.5-6.2,1.72-1.98,3.41-3.99,5.09-6,2.18-2.61,4.33-5.23,6.49-7.85,2.62-3.18,5.24-6.37,7.86-9.56,2.64-3.22,5.31-6.43,7.91-9.69,2.14-2.69,4.2-5.45,6.31-8.16,2.78-3.56,5.53-7.15,8.38-10.66,2.13-2.63,4.32-5.22,6.58-7.74,3.03-3.38,5.77-6.97,8.45-10.63,1.44-1.97,2.94-3.91,4.45-5.84,2.84-3.64,5.71-7.26,8.57-10.89.28-.36.57-.71.87-1.05,2.46-2.73,4.89-5.47,7.38-8.17,1.72-1.86,3.52-3.66,5.28-5.48.28-.29.61-.55.86-.87,2.13-2.85,4.84-5.15,7.3-7.69,2.08-2.15,4.14-4.31,6.25-6.43,1.18-1.19,2.44-2.3,3.66-3.45,1.12-1.05,2.23-2.12,3.39-3.13,1.43-1.25,2.95-2.4,4.36-3.67,1.18-1.06,2.25-2.23,3.37-3.35.22-.23.4-.51.64-.71,4.13-3.4,7.69-7.44,12.04-10.59,1.47-1.06,2.99-2.06,4.41-3.19,3.91-3.13,8.49-5.2,12.5-8.19,1.8-1.34,3.74-2.55,5.91-3.32,1.1-.39,2.07-1.11,3.15-1.59,2.36-1.04,4.74-2.03,7.13-2.99,1.75-.71,3.51-1.41,5.31-1.98,2.03-.64,4.09-1.16,6.15-1.68,1.93-.48,3.88-.91,5.82-1.33,3.5-.75,6.97-1.61,10.6-1.52,2.58.07,5.17-.05,7.75.03,1.13.04,2.67.19,4.57.51,0,0,8.04,1.36,14.38,5.74,1.49,1.03,2.58,2.14,2.58,2.14.32.48.8.86,1.18,1.31.43.52.94,1.02,1.22,1.62.87,1.84,1.8,3.67,2.44,5.59,2.68,8.14,1.01,16.21,1,16.26h0c-.87,15.77-20.78,31.89-20.78,31.89-16.66,13.48-33.78,19.43-51.53,25.61-22.12,7.69-29.61,10.19-29.61,10.19-4.1,1.37-9.73,3.21-14.79,5.3-.86.35-2.82,1.15-5.56,2.19-2.81,1.06-4.46,1.58-6.01,2.12-4.99,1.73-8.82,3.5-11.42,4.7-1.38.64-6.04,2.92-9.98,5.13-3.02,1.7-7.01,4.54-16.54,14.41-4.38,4.54-9.92,10.54-16.06,17.94Zm167.13-122.42c-.23-.81-1.79-4.38-4.72-6.53-.53-.39-1.21-.63-1.86-.77-1.68-.37-3.38-.64-5.08-.96-3.97-.73-7.94-.76-11.89.1-2.3.5-4.59,1.06-6.88,1.62-1.36.34-2.76.59-4.04,1.14-3.04,1.31-6.06,2.66-8.99,4.2-2,1.05-3.82,2.42-5.72,3.65-.46.3-.87.65-1.34.93-2.53,1.51-5.11,2.93-7.6,4.51-2.03,1.28-3.92,2.77-5.92,4.09-2.53,1.68-5.15,3.23-7.64,4.96-3.28,2.27-6.54,4.56-9.68,7.02-3.71,2.91-7.27,6-10.51,9.44-.53.56-1.09,1.11-1.71,1.54-3.22,2.25-5.92,5.08-8.69,7.81-4.23,4.17-8.35,8.45-12.49,12.7-1.52,1.56-3.14,3.06-4.39,4.82-1.08,1.52-2.28,2.92-3.49,4.32-1.54,1.78-3.08,3.56-4.57,5.39-.57.7-1.05,1.49-1.46,2.29-.19.36-.21.88-.13,1.29.04.19.13.33.26.42.25.16.59.03.7-.01,11.44-3.76,26.37-9.34,33.66-12.29,12.32-5,58.34-23.87,76.81-33.78,2.57-1.38,5.29-3.45,7.3-5.19.86-.75,1.69-1.49,2.35-2.42.81-1.15,1.56-2.37,2.54-3.35.54-.54,1.96-2.79,2.64-3.91.81-1.33,4.27-7.01,2.52-13.03Z"/><path d="m351.34,18.95c-.14-2.25-1.79-3.81-2.79-5.7-2.25-4.24-6.09-6.19-10.34-7.59-.99-.33-2.14-.36-3.19-.26-.76.07-1.52.16-2.28.25-2.86.35-4.59.58-5.88.77-1.89.29-11.65,2.16-21.21,6.52-4.65,2.12-13.81,6.9-26.01,18.51-19.17,18.25-29.09,37.44-38.8,56.22-4.84,9.36-7.15,15.02-10.64,23.58-7.65,18.76-12.59,31.22-8.79,34.39.83.69,2.2.98,21.11-7.97,17.94-8.49,22.91-11.69,25.53-13.46.86-.58,3.83-3.7,11.1-7.82,3.07-1.74,5.98-3.73,8.54-6.24,1.58-1.55,3.49-2.78,5.24-4.16,1.98-1.56,3.98-3.08,5.9-4.71,2.47-2.09,4.76-4.4,7.31-6.39,5.01-3.91,10.16-7.65,14.46-12.37,2.04-2.23,3.7-4.82,5.75-7.03,3.39-3.65,6.61-7.38,9.49-11.49,2.71-3.88,6.04-7.33,8.53-11.42.95-1.56,1.84-3.08,2.38-4.82.67-2.13,1.2-4.35,2.22-6.32,1.19-2.31,1.81-4.69,2.09-7.22.24-2.15.59-4.3.7-6.46.16-2.93.8-5.91-.44-8.83Zm-22.48,21.2c-.03,1.71-.35,3.2-.4,3.66-.16,1.43-.51,2.78-1.19,4.09-.57,1.11-.88,2.37-1.26,3.58-.31.99-.81,1.85-1.35,2.73-1.41,2.32-3.3,4.28-4.84,6.48-1.63,2.33-3.46,4.45-5.38,6.51-1.17,1.26-2.11,2.72-3.26,3.99-2.44,2.67-5.36,4.8-8.2,7.01-1.44,1.13-2.75,2.44-4.15,3.63-1.09.92-2.23,1.79-3.35,2.67-.99.78-2.08,1.48-2.97,2.36-1.45,1.42-3.1,2.55-4.84,3.54-2.25,1.28-4.33,2.75-6.29,4.44-2.14,1.83-4.43,3.5-6.67,5.22-1.39,1.07-2.81,2.1-4.23,3.13-1.09.79-2.22,1.52-3.29,2.33-1.45,1.1-2.42,2-2.72,2.27-2.21,1.97-5.39,3.77-9.24,5.76-7.79,4.03-11.68,6.04-12.44,5.37-1.72-1.54,2.13-8.15,8.13-21.98.28-.63.55-1.24.96-2.08.83-1.69,2.22-4.24,4.35-7.04.42-.55.75-1.18,1.05-1.8,1.84-3.85,4.04-7.5,6.43-11.02,2.02-2.98,4.19-5.85,6.38-8.71,1.67-2.17,3.49-4.23,5.2-6.37,1.35-1.69,2.57-3.49,3.96-5.15,1.7-2.04,3.53-3.98,5.29-5.98.32-.37.58-.79.89-1.17,1.29-1.59,2.48-3.27,3.91-4.72,2.09-2.13,4.32-4.13,6.57-6.09.94-.82,2.08-1.43,3.15-2.1,1.81-1.12,3.63-2.23,5.47-3.3,3.16-1.83,6.58-2.9,10.19-3.37,1.54-.2,3.08-.43,4.63-.58.6-.06,1.25-.04,1.81.15.96.32,3.91,1.33,5.87,4.3,1.92,2.92,1.87,6,1.83,8.24Z"/><path class="cls-1" d="m96.34,259.52c7.34-11.59,9.16-16.14,10.09-19.47,1.23-4.35,2.34-9.42,2.63-10.91.55-2.82,1.37-6.95,1.87-12.21.16-1.64.27-3.37.64-6.35.36-2.91.68-5,.82-5.92.83-5.41,1.29-11.32,1.66-15.63,0,0,.66-7.86,2.91-31.18,1.81-18.71,3.55-36.75,12.72-56.12,0,0,10.95-23.15,26.08-27.73h0s7.5-3.55,16.04-2.87c2.02.16,4.02.64,6.01,1.05.65.13,1.25.51,1.86.8.53.26,1.01.63,1.55.83,0,0,1.34.8,2.69,2,5.75,5.13,8.97,12.62,8.97,12.62.76,1.77,1.28,3.23,1.58,4.32.69,2.49,1.18,5.03,1.86,7.52.95,3.5.93,7.09,1.03,10.66.05,1.99.1,3.98.08,5.97-.02,2.13-.03,4.26-.18,6.38-.13,1.88-.4,3.76-.67,5.63-.37,2.55-.78,5.09-1.23,7.63-.2,1.16-.68,2.27-.8,3.43-.23,2.29-.95,4.46-1.83,6.52-1.96,4.59-2.89,9.54-5.01,14.08-.77,1.64-1.37,3.36-2.06,5.03-2.03,4.97-5.12,9.39-7.44,14.2-.14.28-.37.52-.53.79-.83,1.35-1.71,2.67-2.46,4.06-.9,1.67-1.66,3.42-2.54,5.11-.71,1.36-1.49,2.69-2.24,4.03-.82,1.46-1.61,2.94-2.48,4.37-1.56,2.55-3.18,5.07-4.77,7.6-1.89,2.99-3.48,6.17-5.74,8.91-.26.31-.43.69-.65,1.04-1.36,2.14-2.67,4.31-4.08,6.42-2.03,3.06-4.12,6.07-6.19,9.1-.26.37-.53.73-.81,1.09-2.85,3.64-5.7,7.28-8.56,10.9-1.52,1.92-3.04,3.83-4.62,5.7-2.92,3.46-5.76,6.98-8.33,10.72-1.92,2.79-3.91,5.54-5.97,8.23-2.74,3.59-5.57,7.11-8.38,10.65-2.14,2.69-4.33,5.34-6.44,8.06-2.55,3.3-5.04,6.64-7.55,9.97-2.48,3.29-4.96,6.59-7.43,9.89-2.04,2.72-4.08,5.43-6.1,8.16-1.56,2.11-3.11,4.23-4.63,6.37-1.6,2.25-3.12,4.56-4.73,6.81-1.58,2.21-3.24,4.35-4.81,6.56-1.18,1.66-2.25,3.38-3.4,5.06-1.14,1.67-2.31,3.32-3.48,4.97-.44.63-.95,1.21-1.37,1.86-2.08,3.15-3.44,4.35-6.12,7.75-2.3,3.55-4.23,6.63-5.72,9.06-5.34,8.7-7.56,13.03-10.47,12.79-.5-.04-1.12-.4-2.31-1.17-4.15-2.67-6.39-5.96-6.86-6.68-1.6-2.42-3.19-4.91-2.84-7.99.05-.47.17-.87.33-1.37,1.6-5.06,4.94-7.51,8.42-13.17,1.08-1.76.78-1.66,3.28-5.91.99-1.68,1.96-3.37,2.94-5.05.68-1.17,1.38-2.33,2.05-3.51.27-.47.45-1,.74-1.45,3.22-4.95,5.17-10.47,7.26-15.93,1.28-3.34,2.53-6.7,3.76-10.06.79-2.17,1.53-4.36,2.29-6.54.36-1.03.66-2.07,1.04-3.09,1.09-2.89,2.14-5.77,2.36-8.9.08-1.16.32-2.35.7-3.45,1.19-3.4,1.8-6.93,2.38-10.46.21-1.28.19-2.59.41-3.87.74-4.33,1.6-8.63,1.78-13.04.06-1.49.14-3,.43-4.46.37-1.88.49-3.76.56-5.66.06-1.63,0-3.29.33-4.87.65-3.22.82-6.46.89-9.72.03-1.27.06-2.54.09-3.81.11-3.81.29-7.61.3-11.41.01-2.85-.05-5.72-.33-8.56-.34-3.38-.76-6.75-1.62-10.06-.72-2.77-1.3-5.57-2.55-8.17-1.06-2.21-2.1-4.43-3.26-6.57-1.32-2.43-3.15-4.43-5.52-5.89-2.85-1.75-5.91-2.2-9.15-1.41-2.49.61-4.6,1.89-6.41,3.68-2.59,2.57-4.78,5.46-6.6,8.61-3.69,6.39-6.51,13.16-8.65,20.22-.84,2.77-2.15,6.62-3.46,12.02-3.51,14.47-2.78,20.72-6.27,36.98-1.32,6.17-3.43,15.02-5.48,14.9-1.66-.09-3.16-6.11-3.25-10.44-.05-2.38.04-3.91.44-7.36,1.38-11.93,2.26-21,2.48-23.86.13-1.72.27-3.44.42-5.16.06-.67.12-1.34.18-2.01.09-.99.38-1.96.44-2.95.24-3.64,1.27-7.14,2.02-10.68.47-2.21,1.27-4.35,1.76-6.56,1.54-6.85,3.86-13.43,6.88-19.74,1.92-4.01,4.66-7.55,7.27-11.13.26-.36.6-.68.94-.98,1.93-1.65,3.88-3.27,5.79-4.94,2.1-1.84,4.45-3.28,7.05-4.29,4.07-1.57,8.21-2.87,12.64-2.89.77,0,1.53.14,2.3.16,4.8.11,9.24,1.69,13.65,3.38.63.24,1.2.64,1.76,1.02,1.91,1.27,3.49,2.88,4.91,4.67,4.41,5.59,7.08,12,8.76,18.85.65,2.64,1.1,5.33,1.58,8,.29,1.6.47,3.22.66,4.84.14,1.17.15,2.36.35,3.51.34,2.02.49,4.04.38,6.09-.04.86.02,1.72.04,2.58.06,2.35.17,4.7.16,7.06,0,.99.01,2.46-.2,6.93-.47,10.11-1.24,16.75-1.24,16.75-1.69,16.9-3.92,36.92-4.09,38.44,5.74-7.71,10.26-14.51,13.64-19.84Zm53.8-165.95c-.93.93-2.78,2.83-3.18,3.49-.72,1.19-1.74,2.2-2.66,3.26-.75.86-1.28,1.84-1.8,2.86-1.22,2.36-2.59,5.5-3.32,8.32-5.27,20.29-12.75,69.46-14.69,82.62-1.15,7.78-3.04,23.61-4,35.61,0,.12-.06.48.15.68.11.11.27.17.47.16.42-.02.92-.16,1.23-.43.68-.59,1.34-1.24,1.88-1.96,1.42-1.88,2.79-3.8,4.16-5.71,1.08-1.51,2.15-3,3.38-4.41,1.41-1.63,2.49-3.56,3.64-5.4,3.16-5.03,6.34-10.04,9.39-15.13,2-3.34,4.12-6.63,5.54-10.29.28-.71.68-1.39,1.1-2.03,2.58-3.96,4.75-8.15,6.7-12.45,1.65-3.63,3.1-7.34,4.53-11.06,1.09-2.83,1.97-5.74,3.01-8.6.82-2.25,1.81-4.45,2.58-6.72.94-2.79,1.72-5.64,2.59-8.45.16-.52.41-1.01.59-1.52.75-2.13,1.65-4.23,2.2-6.42.8-3.21,1.4-6.47,1.96-9.73.23-1.37.15-2.79.16-4.19,0-2.36.01-4.71-.05-7.07-.1-4.04-1.06-7.89-2.71-11.57-.7-1.57-1.37-3.16-2.13-4.71-.29-.6-.69-1.2-1.18-1.62-2.77-2.35-6.62-3.01-7.46-3.05-6.26-.28-10.97,4.43-12.07,5.53Z"/></svg>