<?xml version="1.0" encoding="UTF-8"?><svg id="Layer_1" xmlns="http://www.w3.org/2000/svg" viewBox="0 0 533.86 569.37"><defs><style>.cls-1{fill:#0b0b0b;}</style></defs><path class="cls-1" d="m227.09,440.93c2.17-.79,30.76-11.21,54.97-19.71,0,0,9.48-3.5,24.15-7.79,6.49-1.9,8.65-2.4,10.1-2.76,3.45-.84,6.94-1.52,10.42-2.28,1.27-.28,2.56-.48,3.81-.86,2.97-.89,5.99-1.4,9.08-1.61,1.77-.12,3.51-.53,5.28-.74,2.44-.29,4.89-.6,7.34-.76,4.1-.25,8.21-.55,12.31-.54,10.66.03,21.02,1.67,30.8,6.14,3.13,1.43,6.06,3.19,8.61,5.53.75.69,1.55,1.39,2.13,2.22,4.06,5.87,7.97,11.82,9.84,18.83.3,1.12.79,2.19,1.06,3.32,1.55,6.5,1.12,13.05.27,19.58-.55,4.18-1.82,8.13-3.78,11.88-1.77,3.4-3.45,6.85-5.19,10.26-.31.61-.66,1.22-1.1,1.73-4.33,5.12-8.55,10.39-13.75,14.65-8.19,6.69-17.02,12.44-26.52,17.14-3.07,1.52-5.92,3.45-9,4.93-4.93,2.37-9.69,5.13-14.95,6.77-1.43.45-2.76,1.21-4.18,1.7-.96.33-1.93.66-2.89.98-2.47.83-4.95,1.65-7.43,2.45-4.12,1.33-17.12,5.87-34.15,12.15-4.92,1.82-7.13,2.5-10.65,3.27-6.39,1.41-15.75,1.36-16.48-1.05-.9-2.97,11.34-9.21,19.92-13.36,22.63-10.92,32.06-12.09,52.05-22.4,7.46-3.85,12.64-7.15,16.42-9.37,9.59-5.66,18.53-12.21,26.59-19.91,3.98-3.8,7.44-8.04,10.29-12.76,1.98-3.29,3.11-6.84,3.12-10.72,0-5.05-1.75-9.38-5.33-12.93-2.99-2.97-6.58-4.94-10.61-6.01-3.57-.94-7.2-1.68-10.82-2.45-4.25-.9-8.58-.76-12.9-.83-5.16-.08-10.27.51-15.35,1.21-4.27.59-8.5,1.53-12.68,2.56-5.58,1.38-11.1,3-16.65,4.52-1.85.5-3.7,1-5.55,1.49-4.76,1.27-9.45,2.68-13.95,4.78-2.21,1.03-4.67,1.54-7.03,2.22-2.76.78-5.49,1.62-8.11,2.84-2.04.94-4.22,1.59-6.39,2.21-6.4,1.83-12.42,4.63-18.5,7.26-1.79.78-3.73,1.22-5.53,1.99-4.98,2.11-9.93,4.27-14.51,7.22-1.48.95-3.13,1.72-4.81,2.26-4.51,1.45-8.37,4.02-12.22,6.64-1.35.92-2.78,1.74-4.16,2.63-2.94,1.89-5.88,3.76-8.79,5.7-4.49,3-8.98,6.03-13.42,9.1-7.27,5.02-14.69,9.85-20.8,16.34-.56.59-1.27,1.04-1.87,1.6-1.49,1.4-2.94,2.84-4.42,4.26-2.12,2.04-4.25,4.07-6.37,6.12-5.34,5.18-5.3,4.7-7.5,6.92-7.07,7.12-9.47,12.91-16.33,17.06-.69.42-1.23.72-1.9.97-4.4,1.61-8.62.17-12.74-1.32-1.22-.44-6.84-2.55-12.25-7.69-1.55-1.48-2.3-2.25-2.54-2.97-1.38-4.19,4.17-8.99,15.05-19.93,3.04-3.06,6.88-6.99,11.26-11.63,4.03-5.14,5.3-7.58,9.19-11.75.79-.85,1.47-1.8,2.23-2.67,2.01-2.3,4.02-4.6,6.06-6.88,2.06-2.28,4.21-4.48,6.22-6.8,2.69-3.09,5.24-6.3,7.92-9.4,2.73-3.16,5.57-6.22,8.31-9.37,2.6-2.99,5.15-6.02,7.69-9.06,3.29-3.94,6.55-7.9,9.81-11.86,3.96-4.81,7.92-9.62,11.87-14.44,3.99-4.87,8.02-9.72,11.94-14.64,3.24-4.06,6.34-8.23,9.53-12.32,4.2-5.39,8.36-10.8,12.65-16.1,3.22-3.98,6.53-7.88,9.95-11.7,4.57-5.1,8.72-10.53,12.76-16.05,2.18-2.98,4.44-5.91,6.72-8.82,4.3-5.5,8.63-10.97,12.95-16.46.42-.54.86-1.07,1.31-1.58,3.71-4.12,7.39-8.27,11.15-12.34,2.6-2.81,5.31-5.52,7.97-8.28.43-.44.93-.83,1.29-1.32,3.22-4.31,7.32-7.77,11.03-11.61,3.14-3.25,6.26-6.52,9.45-9.72,1.78-1.79,3.68-3.48,5.53-5.21,1.7-1.59,3.37-3.21,5.12-4.73,2.17-1.89,4.46-3.63,6.59-5.55,1.78-1.6,3.4-3.37,5.08-5.06.34-.34.6-.76.96-1.07,6.24-5.14,11.62-11.24,18.19-15.99,2.22-1.61,4.52-3.11,6.66-4.82,5.9-4.72,12.83-7.86,18.88-12.38,2.71-2.03,5.64-3.85,8.93-5.01,1.66-.59,3.13-1.68,4.76-2.4,3.56-1.56,7.16-3.07,10.77-4.52,2.65-1.07,5.31-2.13,8.03-3,3.06-.97,6.18-1.76,9.3-2.54,2.92-.73,5.85-1.38,8.79-2.01,5.28-1.13,10.54-2.44,16.02-2.29,3.9.11,7.8-.08,11.7.05,1.71.06,4.04.29,6.91.78,0,0,12.15,2.06,21.73,8.67,2.25,1.55,3.9,3.23,3.9,3.23.49.73,1.21,1.3,1.78,1.98.65.79,1.41,1.54,1.84,2.44,1.32,2.78,2.73,5.54,3.68,8.45,4.04,12.29,1.52,24.49,1.5,24.57h0c-1.32,23.83-31.4,48.17-31.4,48.17-25.17,20.37-51.03,29.36-77.85,38.68-33.42,11.62-44.73,15.4-44.73,15.4-6.19,2.07-14.71,4.86-22.35,8-1.29.53-4.25,1.74-8.4,3.31-4.24,1.61-6.73,2.39-9.09,3.2-7.55,2.62-13.32,5.29-17.26,7.11-2.09.96-9.13,4.4-15.08,7.75-4.56,2.57-10.59,6.86-24.99,21.76-6.62,6.86-14.98,15.93-24.26,27.1Zm252.49-184.95c-.35-1.22-2.7-6.62-7.14-9.86-.8-.58-1.83-.94-2.81-1.16-2.54-.56-5.11-.97-7.67-1.45-6-1.11-11.99-1.15-17.96.14-3.48.75-6.94,1.59-10.4,2.45-2.05.51-4.17.9-6.1,1.73-4.59,1.97-9.16,4.03-13.59,6.34-3.02,1.58-5.78,3.65-8.64,5.52-.69.45-1.32.99-2.02,1.41-3.83,2.28-7.72,4.43-11.48,6.81-3.06,1.93-5.92,4.18-8.94,6.18-3.82,2.54-7.78,4.88-11.55,7.49-4.95,3.43-9.88,6.89-14.62,10.6-5.6,4.39-10.98,9.07-15.88,14.27-.8.84-1.64,1.67-2.59,2.33-4.86,3.39-8.94,7.67-13.12,11.8-6.39,6.3-12.61,12.76-18.87,19.19-2.29,2.35-4.74,4.62-6.63,7.28-1.64,2.3-3.44,4.41-5.27,6.53-2.33,2.69-4.66,5.38-6.9,8.14-.86,1.05-1.58,2.25-2.2,3.46-.28.55-.32,1.33-.19,1.95.06.29.2.5.4.63.38.24.89.04,1.05-.02,17.28-5.68,39.84-14.11,50.86-18.57,18.62-7.55,88.14-36.07,116.05-51.03,3.88-2.08,7.99-5.21,11.02-7.84,1.31-1.13,2.55-2.25,3.55-3.66,1.22-1.73,2.35-3.58,3.84-5.07.82-.82,2.96-4.22,3.99-5.91,1.22-2,6.45-10.6,3.81-19.69Z"/><path d="m526.78,24.95c-.21-3.4-2.7-5.75-4.22-8.61-3.41-6.41-9.21-9.35-15.62-11.47-1.49-.49-3.23-.54-4.82-.39-1.15.11-2.3.24-3.45.38-4.32.52-6.94.88-8.88,1.17-2.85.43-17.6,3.26-32.04,9.85-7.03,3.21-20.87,10.42-39.3,27.97-28.96,27.58-43.95,56.57-58.62,84.94-7.31,14.14-10.8,22.69-16.07,35.63-11.55,28.34-19.02,47.16-13.27,51.95,1.25,1.04,3.33,1.48,31.89-12.05,27.1-12.83,34.62-17.67,38.57-20.34,1.31-.88,5.78-5.59,16.77-11.82,4.64-2.63,9.04-5.64,12.9-9.43,2.39-2.35,5.27-4.2,7.92-6.28,2.99-2.36,6.02-4.66,8.92-7.11,3.73-3.16,7.2-6.65,11.05-9.66,7.57-5.91,15.35-11.56,21.85-18.68,3.08-3.38,5.58-7.28,8.69-10.62,5.13-5.51,9.99-11.14,14.33-17.35,4.1-5.86,9.13-11.07,12.89-17.26,1.43-2.35,2.77-4.65,3.6-7.28,1.01-3.22,1.82-6.58,3.35-9.55,1.8-3.49,2.73-7.09,3.16-10.91.37-3.25.89-6.49,1.06-9.76.24-4.43,1.21-8.92-.66-13.34Zm-33.96,32.03c-.04,2.59-.52,4.84-.6,5.53-.25,2.16-.77,4.21-1.79,6.18-.87,1.68-1.33,3.59-1.9,5.42-.47,1.49-1.23,2.79-2.04,4.13-2.13,3.51-4.99,6.46-7.31,9.79-2.46,3.52-5.22,6.72-8.13,9.84-1.76,1.9-3.18,4.11-4.93,6.03-3.69,4.04-8.1,7.25-12.39,10.59-2.18,1.7-4.15,3.68-6.26,5.48-1.64,1.39-3.36,2.7-5.06,4.03-1.5,1.18-3.14,2.23-4.49,3.56-2.19,2.15-4.69,3.86-7.32,5.35-3.4,1.93-6.54,4.16-9.51,6.7-3.24,2.77-6.69,5.29-10.07,7.88-2.1,1.61-4.24,3.17-6.39,4.72-1.64,1.19-3.35,2.29-4.97,3.52-2.19,1.66-3.66,3.03-4.11,3.43-3.33,2.97-8.14,5.7-13.95,8.7-11.77,6.09-17.65,9.13-18.79,8.11-2.6-2.33,3.21-12.31,12.28-33.21.42-.96.83-1.87,1.45-3.14,1.25-2.56,3.35-6.4,6.57-10.63.63-.83,1.13-1.78,1.58-2.72,2.78-5.82,6.11-11.33,9.71-16.66,3.04-4.5,6.33-8.84,9.64-13.15,2.52-3.29,5.28-6.39,7.86-9.63,2.04-2.56,3.88-5.28,5.98-7.79,2.58-3.08,5.33-6.02,7.99-9.03.49-.55.88-1.19,1.35-1.77,1.95-2.4,3.75-4.94,5.9-7.13,3.16-3.21,6.53-6.24,9.93-9.21,1.43-1.24,3.14-2.17,4.77-3.17,2.74-1.69,5.48-3.37,8.26-4.98,4.78-2.76,9.94-4.38,15.4-5.09,2.33-.3,4.66-.65,6.99-.88.9-.09,1.89-.06,2.73.22,1.45.48,5.9,2.01,8.86,6.5,2.9,4.41,2.82,9.07,2.77,12.44Z"/><path class="cls-1" d="m141.54,388.39c11.09-17.51,13.83-24.39,15.25-29.42,1.85-6.57,3.53-14.23,3.98-16.49.84-4.26,2.07-10.5,2.83-18.45.24-2.48.41-5.08.97-9.59.55-4.4,1.02-7.56,1.23-8.94,1.25-8.17,1.95-17.1,2.5-23.61,0,0,1-11.88,4.4-47.1,2.73-28.26,5.36-55.51,19.21-84.78,0,0,16.55-34.98,39.4-41.89h0c.07-.03,11.32-5.37,24.23-4.34,3.05.24,6.07.96,9.08,1.58.98.2,1.89.76,2.81,1.21.8.39,1.52.95,2.35,1.26,0,0,2.02,1.21,4.06,3.02,8.69,7.75,13.56,19.06,13.56,19.06,1.15,2.68,1.93,4.89,2.39,6.53,1.04,3.76,1.79,7.6,2.81,11.36,1.44,5.29,1.41,10.7,1.56,16.11.08,3.01.15,6.01.13,9.02-.02,3.21-.05,6.43-.27,9.63-.2,2.85-.6,5.68-1.02,8.51-.56,3.85-1.17,7.7-1.85,11.53-.31,1.75-1.03,3.44-1.21,5.19-.35,3.46-1.43,6.74-2.76,9.86-2.96,6.94-4.37,14.42-7.57,21.27-1.16,2.48-2.07,5.07-3.11,7.61-3.07,7.51-7.73,14.18-11.25,21.45-.21.43-.56.78-.81,1.19-1.25,2.04-2.59,4.03-3.72,6.14-1.36,2.53-2.52,5.17-3.84,7.72-1.07,2.06-2.25,4.06-3.39,6.09-1.24,2.21-2.43,4.44-3.75,6.6-2.36,3.85-4.8,7.66-7.21,11.47-2.85,4.51-5.25,9.31-8.68,13.46-.39.47-.65,1.05-.98,1.57-2.05,3.24-4.04,6.51-6.16,9.7-3.07,4.62-6.23,9.17-9.36,13.75-.39.56-.8,1.11-1.23,1.65-4.31,5.49-8.6,10.99-12.93,16.46-2.29,2.9-4.6,5.78-6.98,8.61-4.41,5.23-8.71,10.54-12.59,16.19-2.9,4.22-5.91,8.36-9.02,12.43-4.15,5.42-8.42,10.75-12.66,16.1-3.23,4.07-6.55,8.07-9.72,12.17-3.86,4.98-7.62,10.03-11.41,15.06-3.75,4.98-7.49,9.96-11.23,14.94-3.08,4.1-6.16,8.21-9.21,12.33-2.36,3.19-4.7,6.38-6.99,9.62-2.41,3.4-4.72,6.89-7.14,10.28-2.38,3.33-4.89,6.58-7.27,9.92-1.78,2.5-3.41,5.11-5.14,7.65-1.72,2.52-3.49,5.02-5.25,7.52-.67.95-1.43,1.83-2.07,2.8-3.14,4.76-5.2,6.58-9.25,11.71-3.48,5.36-6.39,10.01-8.64,13.69-8.07,13.15-11.42,19.68-15.82,19.33-.76-.06-1.68-.6-3.49-1.76-6.27-4.04-9.65-9.01-10.36-10.09-2.42-3.65-4.82-7.42-4.29-12.07.08-.7.25-1.31.49-2.07,2.41-7.64,7.47-11.34,12.73-19.89,1.64-2.66,1.18-2.51,4.96-8.92,1.49-2.54,2.96-5.09,4.45-7.63,1.03-1.77,2.08-3.52,3.1-5.3.41-.71.67-1.51,1.12-2.19,4.87-7.47,7.81-15.82,10.97-24.07,1.93-5.05,3.82-10.12,5.67-15.19,1.2-3.28,2.32-6.58,3.46-9.88.54-1.55.99-3.13,1.57-4.66,1.64-4.36,3.23-8.72,3.57-13.45.13-1.75.48-3.55,1.06-5.21,1.79-5.14,2.72-10.46,3.59-15.8.31-1.93.29-3.92.62-5.84,1.12-6.54,2.42-13.04,2.69-19.69.09-2.25.21-4.53.64-6.73.56-2.84.74-5.68.85-8.55.09-2.46.01-4.97.49-7.36.98-4.86,1.24-9.76,1.35-14.68.04-1.92.09-3.83.14-5.75.16-5.75.43-11.5.46-17.24.02-4.31-.07-8.65-.5-12.93-.52-5.1-1.15-10.2-2.44-15.2-1.08-4.18-1.97-8.41-3.85-12.34-1.6-3.33-3.17-6.69-4.93-9.93-1.99-3.67-4.76-6.69-8.35-8.9-4.3-2.64-8.92-3.33-13.83-2.13-3.76.92-6.95,2.86-9.68,5.56-3.92,3.88-7.22,8.24-9.97,13.01-5.58,9.66-9.84,19.89-13.07,30.54-1.27,4.19-3.25,10-5.23,18.16-5.3,21.86-4.21,31.3-9.48,55.87-2,9.32-5.18,22.68-8.28,22.51-2.51-.14-4.78-9.23-4.91-15.77-.07-3.6.06-5.91.67-11.12,2.08-18.02,3.42-31.73,3.74-36.05.19-2.6.41-5.2.63-7.8.09-1.01.17-2.03.27-3.04.14-1.5.57-2.97.66-4.46.36-5.51,1.91-10.78,3.05-16.13.71-3.34,1.92-6.58,2.67-9.91,2.32-10.34,5.83-20.28,10.4-29.82,2.91-6.06,7.03-11.4,10.99-16.82.4-.55.91-1.03,1.42-1.48,2.91-2.5,5.87-4.94,8.75-7.46,3.18-2.79,6.72-4.96,10.65-6.48,6.15-2.38,12.41-4.34,19.09-4.37,1.16,0,2.32.22,3.48.24,7.26.16,13.96,2.55,20.62,5.11.95.36,1.81.97,2.66,1.54,2.88,1.92,5.28,4.35,7.41,7.06,6.66,8.45,10.7,18.13,13.24,28.48.98,3.99,1.66,8.05,2.38,12.09.43,2.42.71,4.87,1,7.31.21,1.76.22,3.56.52,5.31.52,3.06.74,6.11.58,9.2-.07,1.3.04,2.6.07,3.9.09,3.55.25,7.11.25,10.66,0,1.49.02,3.72-.3,10.47-.71,15.27-1.87,25.31-1.87,25.31-2.55,25.53-5.92,55.78-6.18,58.07,8.67-11.65,15.51-21.91,20.6-29.97Zm81.27-250.7c-1.4,1.4-4.2,4.28-4.8,5.27-1.09,1.79-2.62,3.33-4.02,4.92-1.14,1.3-1.93,2.78-2.72,4.31-1.84,3.57-3.91,8.31-5.02,12.56-7.96,30.65-19.26,104.94-22.19,124.82-1.74,11.75-4.6,35.67-6.04,53.8-.01.17-.09.72.23,1.03.17.16.41.25.71.24.63-.02,1.38-.24,1.85-.65,1.03-.89,2.02-1.87,2.84-2.96,2.15-2.84,4.22-5.73,6.28-8.63,1.63-2.28,3.25-4.53,5.1-6.66,2.13-2.46,3.76-5.38,5.51-8.16,4.77-7.6,9.58-15.17,14.19-22.86,3.02-5.04,6.22-10.01,8.37-15.54.42-1.08,1.02-2.1,1.66-3.07,3.89-5.99,7.17-12.32,10.12-18.8,2.49-5.48,4.69-11.09,6.85-16.71,1.65-4.28,2.98-8.68,4.55-12.99,1.24-3.4,2.74-6.72,3.9-10.15,1.42-4.22,2.6-8.51,3.91-12.77.24-.78.62-1.52.89-2.29,1.14-3.23,2.5-6.4,3.32-9.7,1.21-4.85,2.12-9.77,2.95-14.7.35-2.07.23-4.22.24-6.33.01-3.56.02-7.12-.08-10.68-.16-6.1-1.61-11.92-4.1-17.48-1.06-2.37-2.08-4.77-3.22-7.11-.44-.9-1.04-1.82-1.79-2.45-4.19-3.55-9.99-4.55-11.26-4.61-9.45-.42-16.57,6.69-18.23,8.35Z"/></svg>