<?xml version="1.0" encoding="UTF-8"?><svg id="Layer_1" xmlns="http://www.w3.org/2000/svg" viewBox="0 0 1152 720"><defs><style>.cls-1{fill:#0b0b0b;}</style></defs><path class="cls-1" d="m465.34,403.92c2.12-.91,30.1-12.9,53.79-22.73,0,0,9.27-4.02,23.68-9.12,6.37-2.25,8.51-2.88,9.94-3.31,3.4-1.03,6.85-1.9,10.28-2.85,1.25-.35,2.53-.63,3.75-1.06,2.92-1.05,5.9-1.73,8.98-2.11,1.76-.22,3.48-.73,5.23-1.04,2.42-.43,4.85-.87,7.29-1.16,4.08-.48,8.17-1,12.26-1.22,10.64-.56,21.08.5,31.09,4.43,3.21,1.26,6.23,2.85,8.9,5.05.79.65,1.62,1.3,2.25,2.1,4.38,5.63,8.61,11.36,10.86,18.26.36,1.1.91,2.15,1.24,3.26,1.91,6.41,1.84,12.96,1.35,19.54-.32,4.2-1.37,8.22-3.12,12.07-1.58,3.49-3.06,7.03-4.61,10.53-.28.62-.59,1.25-1,1.79-4.04,5.35-7.96,10.85-12.92,15.39-7.81,7.13-16.3,13.37-25.53,18.58-2.98,1.68-5.72,3.77-8.72,5.42-4.79,2.64-9.39,5.66-14.56,7.59-1.4.53-2.69,1.36-4.08,1.93-.94.39-1.89.76-2.83,1.14-2.42.96-4.85,1.92-7.28,2.86-4.04,1.56-16.77,6.8-33.42,14.02-4.82,2.09-6.98,2.89-10.45,3.86-6.3,1.76-15.65,2.23-16.52-.13-1.06-2.91,10.81-9.83,19.15-14.44,21.99-12.16,31.34-13.85,50.73-25.25,7.24-4.26,12.23-7.84,15.87-10.27,9.27-6.18,17.82-13.22,25.45-21.36,3.77-4.02,6.99-8.44,9.56-13.31,1.8-3.4,2.73-7.01,2.52-10.87-.27-5.04-2.27-9.26-6.04-12.62-3.15-2.8-6.84-4.57-10.93-5.41-3.62-.75-7.28-1.28-10.94-1.84-4.3-.67-8.61-.29-12.92-.11-5.16.21-10.22,1.08-15.26,2.06-4.23.82-8.4,2-12.52,3.26-5.5,1.69-10.92,3.61-16.37,5.43-1.82.61-3.64,1.2-5.46,1.8-4.68,1.53-9.29,3.2-13.66,5.54-2.15,1.15-4.58,1.8-6.9,2.6-2.71.94-5.39,1.93-7.94,3.29-1.98,1.06-4.13,1.82-6.26,2.56-6.29,2.19-12.14,5.31-18.07,8.28-1.75.87-3.66,1.43-5.41,2.29-4.86,2.38-9.68,4.81-14.09,8.01-1.42,1.03-3.03,1.89-4.68,2.52-4.42,1.7-8.14,4.47-11.84,7.31-1.3,1-2.68,1.89-4.01,2.85-2.83,2.05-5.67,4.08-8.46,6.17-4.32,3.25-8.63,6.52-12.9,9.83-6.98,5.41-14.12,10.65-19.87,17.47-.53.62-1.21,1.11-1.78,1.71-1.41,1.49-2.78,3-4.18,4.5-2,2.16-4.02,4.3-6.02,6.47-5.05,5.47-5.03,4.99-7.11,7.33-6.66,7.51-8.74,13.42-15.36,17.94-.66.45-1.19.79-1.84,1.07-4.3,1.85-8.6.65-12.79-.61-1.24-.37-6.97-2.17-12.66-7-1.63-1.39-2.42-2.12-2.7-2.83-1.61-4.11,3.67-9.2,13.92-20.73,2.87-3.22,6.48-7.36,10.6-12.24,3.74-5.35,4.88-7.86,8.53-12.24.74-.89,1.37-1.88,2.08-2.79,1.88-2.41,3.76-4.82,5.67-7.2,1.93-2.39,3.95-4.71,5.83-7.13,2.51-3.24,4.88-6.58,7.39-9.82,2.55-3.3,5.21-6.52,7.77-9.81,2.43-3.13,4.81-6.3,7.18-9.48,3.06-4.11,6.1-8.25,9.14-12.38,3.69-5.02,7.38-10.05,11.05-15.08,3.72-5.09,7.47-10.15,11.12-15.28,3.01-4.23,5.87-8.57,8.83-12.83,3.89-5.61,7.75-11.24,11.74-16.78,2.99-4.15,6.09-8.23,9.29-12.23,4.28-5.35,8.12-11,11.85-16.74,2.01-3.1,4.11-6.14,6.22-9.18,3.98-5.73,8-11.43,12.01-17.15.39-.56.79-1.12,1.22-1.65,3.48-4.32,6.92-8.66,10.45-12.94,2.44-2.95,5-5.81,7.5-8.71.4-.47.88-.88,1.22-1.39,2.97-4.48,6.88-8.17,10.37-12.2,2.96-3.42,5.89-6.85,8.89-10.23,1.68-1.89,3.48-3.68,5.23-5.5,1.61-1.68,3.18-3.39,4.85-5.01,2.06-2,4.25-3.87,6.28-5.91,1.68-1.7,3.21-3.55,4.8-5.34.32-.36.56-.8.9-1.12,5.94-5.47,10.98-11.87,17.28-16.98,2.13-1.73,4.34-3.35,6.38-5.18,5.63-5.04,12.38-8.56,18.16-13.4,2.6-2.18,5.42-4.16,8.64-5.5,1.63-.68,3.03-1.86,4.62-2.66,3.47-1.76,6.98-3.46,10.5-5.11,2.59-1.21,5.18-2.42,7.85-3.44,3-1.14,6.07-2.1,9.14-3.05,2.87-.89,5.77-1.7,8.67-2.49,5.21-1.42,10.39-3.02,15.87-3.17,3.9-.11,7.79-.51,11.69-.6,1.71-.04,4.05.07,6.94.39,0,0,12.24,1.38,22.17,7.46,2.33,1.43,4.07,3.01,4.07,3.01.53.7,1.28,1.23,1.88,1.88.69.75,1.5,1.46,1.97,2.34,1.47,2.7,3.03,5.38,4.14,8.23,4.72,12.05,2.87,24.37,2.86,24.44h0c0,23.87-28.69,49.83-28.69,49.83-24.01,21.73-49.33,32.14-75.59,42.94-32.73,13.45-43.81,17.85-43.81,17.85-6.07,2.41-14.41,5.66-21.87,9.23-1.26.6-4.15,1.97-8.2,3.77-4.15,1.84-6.59,2.76-8.9,3.7-7.39,3.03-13,6.02-16.84,8.05-2.03,1.08-8.87,4.9-14.63,8.58-4.41,2.81-10.19,7.43-23.74,23.11-6.23,7.21-14.08,16.73-22.72,28.4Zm241.87-198.64c-.42-1.2-3.06-6.46-7.67-9.45-.83-.54-1.88-.84-2.87-1-2.57-.41-5.16-.69-7.74-1.02-6.05-.77-12.03-.48-17.92,1.14-3.43.94-6.84,1.98-10.25,3.02-2.02.62-4.12,1.13-5.99,2.06-4.47,2.23-8.93,4.53-13.21,7.08-2.92,1.74-5.56,3.97-8.32,5.99-.66.48-1.26,1.06-1.94,1.52-3.69,2.48-7.47,4.85-11.09,7.44-2.95,2.1-5.68,4.5-8.58,6.67-3.67,2.75-7.5,5.3-11.12,8.11-4.75,3.7-9.49,7.43-14.01,11.4-5.35,4.7-10.46,9.67-15.07,15.13-.75.89-1.55,1.76-2.46,2.47-4.67,3.66-8.5,8.16-12.45,12.51-6.03,6.64-11.88,13.44-17.78,20.2-2.16,2.48-4.48,4.88-6.22,7.63-1.51,2.39-3.19,4.6-4.9,6.81-2.18,2.82-4.35,5.63-6.44,8.51-.8,1.1-1.45,2.33-2.01,3.57-.25.56-.24,1.35-.08,1.96.07.28.23.49.43.61.39.22.89-.01,1.05-.07,16.94-6.63,39-16.29,49.75-21.36,18.17-8.57,86.01-40.89,113.04-57.38,3.75-2.29,7.69-5.65,10.57-8.44,1.24-1.2,2.42-2.38,3.34-3.85,1.13-1.8,2.15-3.71,3.55-5.27.77-.86,2.72-4.38,3.65-6.12,1.1-2.07,5.85-10.94,2.71-19.87Z"/></svg>