<svg id="Layer_1" data-name="Layer 1" xmlns="http://www.w3.org/2000/svg" viewBox="0 0 407.89 380.52"><defs><style>.cls-1{fill:#0b0b0b;}</style></defs><path class="cls-1" d="M132.34,252.73c2.12-.91,30.1-12.9,53.79-22.73,0,0,9.27-4,23.68-9.12,6.37-2.25,8.51-2.88,9.94-3.31,3.4-1,6.85-1.9,10.28-2.85,1.25-.35,2.53-.63,3.75-1.06a41.31,41.31,0,0,1,9-2.11c1.76-.22,3.48-.73,5.23-1,2.42-.43,4.85-.87,7.29-1.16,4.08-.48,8.17-1,12.26-1.22,10.64-.56,21.08.5,31.09,4.43a32.4,32.4,0,0,1,8.9,5.05,14.47,14.47,0,0,1,2.25,2.1c4.38,5.63,8.61,11.36,10.86,18.26.36,1.1.91,2.15,1.24,3.26,1.91,6.41,1.84,13,1.35,19.54a35.47,35.47,0,0,1-3.12,12.07c-1.58,3.49-3.06,7-4.61,10.53a9.22,9.22,0,0,1-1,1.79c-4,5.35-8,10.85-12.92,15.39a139.62,139.62,0,0,1-25.53,18.58c-3,1.68-5.72,3.77-8.72,5.42-4.79,2.64-9.39,5.66-14.56,7.59-1.4.53-2.69,1.36-4.08,1.93-.94.39-1.89.76-2.83,1.14-2.42,1-4.85,1.92-7.28,2.86-4,1.56-16.77,6.8-33.42,14A70.21,70.21,0,0,1,194.71,356c-6.3,1.76-15.65,2.23-16.52-.13-1.06-2.91,10.81-9.83,19.15-14.44,22-12.16,31.34-13.85,50.73-25.25,7.24-4.26,12.23-7.84,15.87-10.27a144.47,144.47,0,0,0,25.45-21.36A61.15,61.15,0,0,0,299,271.19a20.51,20.51,0,0,0,2.52-10.87,17.53,17.53,0,0,0-6-12.62,23.22,23.22,0,0,0-10.93-5.41c-3.62-.75-7.28-1.28-10.94-1.84-4.3-.67-8.61-.29-12.92-.11a101.59,101.59,0,0,0-15.26,2.06,123.11,123.11,0,0,0-12.52,3.26c-5.5,1.69-10.92,3.61-16.37,5.43l-5.46,1.8a83.69,83.69,0,0,0-13.66,5.54,46.85,46.85,0,0,1-6.9,2.6,54.89,54.89,0,0,0-7.94,3.29,43.26,43.26,0,0,1-6.26,2.56c-6.29,2.19-12.14,5.31-18.07,8.28-1.75.87-3.66,1.43-5.41,2.29a93.8,93.8,0,0,0-14.09,8A20.5,20.5,0,0,1,134,288c-4.42,1.7-8.14,4.47-11.84,7.31-1.3,1-2.68,1.89-4,2.85-2.83,2.05-5.67,4.08-8.46,6.17q-6.48,4.88-12.9,9.83c-7,5.41-14.12,10.65-19.87,17.47-.53.62-1.21,1.11-1.78,1.71-1.41,1.49-2.78,3-4.18,4.5-2,2.16-4,4.3-6,6.47-5,5.47-5,5-7.11,7.33-6.66,7.51-8.74,13.42-15.36,17.94a10.66,10.66,0,0,1-1.84,1.07c-4.3,1.85-8.6.65-12.79-.61a36.34,36.34,0,0,1-12.66-7c-1.63-1.39-2.42-2.12-2.7-2.83-1.61-4.11,3.67-9.2,13.92-20.73,2.87-3.22,6.48-7.36,10.6-12.24,3.74-5.35,4.88-7.86,8.53-12.24.74-.89,1.37-1.88,2.08-2.79,1.88-2.41,3.76-4.82,5.67-7.2s4-4.71,5.83-7.13c2.51-3.24,4.88-6.58,7.39-9.82s5.21-6.52,7.77-9.81c2.43-3.13,4.81-6.3,7.18-9.48,3.06-4.11,6.1-8.25,9.14-12.38q5.53-7.53,11-15.08c3.72-5.09,7.47-10.15,11.12-15.28,3-4.23,5.87-8.57,8.83-12.83,3.89-5.61,7.75-11.24,11.74-16.78q4.49-6.22,9.29-12.23c4.28-5.35,8.12-11,11.85-16.74,2-3.1,4.11-6.14,6.22-9.18,4-5.73,8-11.43,12-17.15.39-.56.79-1.12,1.22-1.65,3.48-4.32,6.92-8.66,10.45-12.94,2.44-3,5-5.81,7.5-8.71a16,16,0,0,0,1.22-1.39c3-4.48,6.88-8.17,10.37-12.2,3-3.42,5.89-6.85,8.89-10.23,1.68-1.89,3.48-3.68,5.23-5.5s3.18-3.39,4.85-5c2.06-2,4.25-3.87,6.28-5.91,1.68-1.7,3.21-3.55,4.8-5.34.32-.36.56-.8.9-1.12,5.94-5.47,11-11.87,17.28-17,2.13-1.73,4.34-3.35,6.38-5.18,5.63-5,12.38-8.56,18.16-13.4a33.77,33.77,0,0,1,8.64-5.5c1.63-.68,3-1.86,4.62-2.66,3.47-1.76,7-3.46,10.5-5.11,2.59-1.21,5.18-2.42,7.85-3.44,3-1.14,6.07-2.1,9.14-3,2.87-.89,5.77-1.7,8.67-2.49,5.21-1.42,10.39-3,15.87-3.17,3.9-.11,7.79-.51,11.69-.6a54.06,54.06,0,0,1,6.94.39s12.24,1.38,22.17,7.46a30.4,30.4,0,0,1,4.07,3c.53.7,1.28,1.23,1.88,1.88a12.42,12.42,0,0,1,2,2.34,72.8,72.8,0,0,1,4.14,8.23c4.72,12.05,2.87,24.37,2.86,24.44h0c0,23.87-28.69,49.83-28.69,49.83-24,21.73-49.33,32.14-75.59,42.94-32.73,13.45-43.81,17.85-43.81,17.85-6.07,2.41-14.41,5.66-21.87,9.23-1.26.6-4.15,2-8.2,3.77s-6.59,2.76-8.9,3.7a180.86,180.86,0,0,0-16.84,8c-2,1.08-8.87,4.9-14.63,8.58-4.41,2.81-10.19,7.43-23.74,23.11-6.23,7.21-14.08,16.73-22.72,28.4ZM374.21,54.09a22.25,22.25,0,0,0-7.67-9.45,7.56,7.56,0,0,0-2.87-1c-2.57-.41-5.16-.69-7.74-1A45.32,45.32,0,0,0,338,43.76c-3.43.94-6.84,2-10.25,3a39.18,39.18,0,0,0-6,2.06c-4.47,2.23-8.93,4.53-13.21,7.08-2.92,1.74-5.56,4-8.32,6-.66.48-1.26,1.06-1.94,1.52-3.69,2.48-7.47,4.85-11.09,7.44-2.95,2.1-5.68,4.5-8.58,6.67-3.67,2.75-7.5,5.3-11.12,8.11-4.75,3.7-9.49,7.43-14,11.4a143.52,143.52,0,0,0-15.07,15.13,16.9,16.9,0,0,1-2.46,2.47c-4.67,3.66-8.5,8.16-12.45,12.51-6,6.64-11.88,13.44-17.78,20.2a65.2,65.2,0,0,0-6.22,7.63c-1.51,2.39-3.19,4.6-4.9,6.81-2.18,2.82-4.35,5.63-6.44,8.51a20.19,20.19,0,0,0-2,3.57,3.19,3.19,0,0,0-.08,2,1,1,0,0,0,.43.61,1.28,1.28,0,0,0,1-.07c16.94-6.63,39-16.29,49.75-21.36,18.17-8.57,86-40.89,113-57.38a65.47,65.47,0,0,0,10.57-8.44,20.76,20.76,0,0,0,3.34-3.85,37.66,37.66,0,0,1,3.55-5.27A53.66,53.66,0,0,0,371.47,74c1.1-2.07,5.85-10.94,2.71-19.87Z"/></svg>